<svg xmlns="http://www.w3.org/2000/svg" width="30" height="26.25" viewBox="0 0 30 26.25">
  <path id="Контур_8677" data-name="Контур 8677" d="M23.438-7.5a2.759,2.759,0,0,1,1.1.22,2.822,2.822,0,0,1,.894.6,2.822,2.822,0,0,1,.6.894,2.759,2.759,0,0,1,.22,1.1,2.759,2.759,0,0,1-.22,1.1,2.822,2.822,0,0,1-.6.894,2.822,2.822,0,0,1-.894.6,2.759,2.759,0,0,1-1.1.22,2.759,2.759,0,0,1-1.1-.22,2.822,2.822,0,0,1-.894-.6,2.822,2.822,0,0,1-.6-.894,2.759,2.759,0,0,1-.22-1.1,2.958,2.958,0,0,1,.161-.937H12.964a2.958,2.958,0,0,1,.161.938,2.759,2.759,0,0,1-.22,1.1,2.822,2.822,0,0,1-.6.894,2.822,2.822,0,0,1-.894.6,2.759,2.759,0,0,1-1.1.22,2.759,2.759,0,0,1-1.1-.22,2.822,2.822,0,0,1-.894-.6,2.822,2.822,0,0,1-.6-.894,2.759,2.759,0,0,1-.22-1.1,2.758,2.758,0,0,1,.432-1.494A2.757,2.757,0,0,1,9.1-7.222L2.769-26.25H0v-1.875H4.116l1.245,3.75H30L25.635-11.25H9.741L10.986-7.5ZM5.991-22.5l3.12,9.375H24.272l3.12-9.375ZM11.25-4.687a.9.9,0,0,0-.278-.659.9.9,0,0,0-.659-.278.9.9,0,0,0-.659.278.9.9,0,0,0-.278.659.9.9,0,0,0,.278.659.9.9,0,0,0,.659.278.9.9,0,0,0,.659-.278A.9.9,0,0,0,11.25-4.687Zm12.188.938a.9.9,0,0,0,.659-.278.9.9,0,0,0,.278-.659.9.9,0,0,0-.278-.659.9.9,0,0,0-.659-.278.9.9,0,0,0-.659.278.9.9,0,0,0-.278.659.9.9,0,0,0,.278.659A.9.9,0,0,0,23.438-3.75Z" transform="translate(0 28.125)" fill="#020403"/>
</svg>
