<svg xmlns="http://www.w3.org/2000/svg" width="20" height="12.5" viewBox="0 0 20 12.5">
  <path id="Контур_8691" data-name="Контур 8691" d="M20-11.25a1.211,1.211,0,0,0-.488.1,1.27,1.27,0,0,0-.4.269,1.27,1.27,0,0,0-.269.4,1.211,1.211,0,0,0-.1.488,1.211,1.211,0,0,0,.1.488,1.27,1.27,0,0,0,.269.4,1.27,1.27,0,0,0,.4.269,1.211,1.211,0,0,0,.488.1v5H0v-5a1.211,1.211,0,0,0,.488-.1,1.27,1.27,0,0,0,.4-.269,1.27,1.27,0,0,0,.269-.4A1.211,1.211,0,0,0,1.25-10a1.211,1.211,0,0,0-.1-.488,1.27,1.27,0,0,0-.269-.4,1.27,1.27,0,0,0-.4-.269A1.211,1.211,0,0,0,0-11.25v-5H20ZM18.75-15H1.25v2.832a2.484,2.484,0,0,1,.918.918A2.461,2.461,0,0,1,2.5-10a2.461,2.461,0,0,1-.332,1.25,2.484,2.484,0,0,1-.918.918V-5h17.5V-7.832a2.484,2.484,0,0,1-.918-.918A2.461,2.461,0,0,1,17.5-10a2.461,2.461,0,0,1,.332-1.25,2.484,2.484,0,0,1,.918-.918Z" transform="translate(0 16.25)" fill="#020403"/>
</svg>
