<svg xmlns="http://www.w3.org/2000/svg" width="24" height="22.5" viewBox="0 0 24 22.5">
  <path id="Контур_8681" data-name="Контур 8681" d="M24-21v1.5H15v.75a2.207,2.207,0,0,1-.176.879,2.257,2.257,0,0,1-.48.715,2.257,2.257,0,0,1-.715.48,2.207,2.207,0,0,1-.879.176,2.207,2.207,0,0,1-.879-.176,2.257,2.257,0,0,1-.715-.48,2.257,2.257,0,0,1-.48-.715,2.207,2.207,0,0,1-.176-.879v-.75H0V-21H10.5v-.75a2.207,2.207,0,0,1,.176-.879,2.257,2.257,0,0,1,.48-.715,2.257,2.257,0,0,1,.715-.48A2.207,2.207,0,0,1,12.75-24a2.207,2.207,0,0,1,.879.176,2.257,2.257,0,0,1,.715.48,2.257,2.257,0,0,1,.48.715A2.207,2.207,0,0,1,15-21.75V-21ZM18.75-9a2.207,2.207,0,0,1,.879.176,2.257,2.257,0,0,1,.715.48,2.257,2.257,0,0,1,.48.715A2.207,2.207,0,0,1,21-6.75V-6h3v1.5H21v.75a2.207,2.207,0,0,1-.176.879,2.257,2.257,0,0,1-.48.715,2.257,2.257,0,0,1-.715.48,2.207,2.207,0,0,1-.879.176,2.207,2.207,0,0,1-.879-.176,2.257,2.257,0,0,1-.715-.48,2.257,2.257,0,0,1-.48-.715A2.207,2.207,0,0,1,16.5-3.75V-4.5H0V-6H16.5v-.75a2.207,2.207,0,0,1,.176-.879,2.257,2.257,0,0,1,.48-.715,2.257,2.257,0,0,1,.715-.48A2.207,2.207,0,0,1,18.75-9ZM5.25-16.5a2.207,2.207,0,0,1,.879.176,2.257,2.257,0,0,1,.715.48,2.257,2.257,0,0,1,.48.715,2.207,2.207,0,0,1,.176.879v.75H24V-12H7.5v.75a2.207,2.207,0,0,1-.176.879,2.257,2.257,0,0,1-.48.715,2.257,2.257,0,0,1-.715.48A2.207,2.207,0,0,1,5.25-9a2.207,2.207,0,0,1-.879-.176,2.257,2.257,0,0,1-.715-.48,2.257,2.257,0,0,1-.48-.715A2.207,2.207,0,0,1,3-11.25V-12H0v-1.5H3v-.75a2.207,2.207,0,0,1,.176-.879,2.257,2.257,0,0,1,.48-.715,2.257,2.257,0,0,1,.715-.48A2.207,2.207,0,0,1,5.25-16.5ZM6-14.25a.721.721,0,0,0-.223-.527A.721.721,0,0,0,5.25-15a.721.721,0,0,0-.527.223.721.721,0,0,0-.223.527v3a.721.721,0,0,0,.223.527.721.721,0,0,0,.527.223.721.721,0,0,0,.527-.223A.721.721,0,0,0,6-11.25Zm7.5-7.5a.721.721,0,0,0-.223-.527.721.721,0,0,0-.527-.223.721.721,0,0,0-.527.223A.721.721,0,0,0,12-21.75v3a.721.721,0,0,0,.223.527A.721.721,0,0,0,12.75-18a.721.721,0,0,0,.527-.223.721.721,0,0,0,.223-.527Zm6,15a.721.721,0,0,0-.223-.527A.721.721,0,0,0,18.75-7.5a.721.721,0,0,0-.527.223A.721.721,0,0,0,18-6.75v3a.721.721,0,0,0,.223.527A.721.721,0,0,0,18.75-3a.721.721,0,0,0,.527-.223A.721.721,0,0,0,19.5-3.75Z" transform="translate(0 24)" fill="#020403"/>
</svg>
