<svg xmlns="http://www.w3.org/2000/svg" width="20" height="18.75" viewBox="0 0 20 18.75">
  <path id="Контур_8692" data-name="Контур 8692" d="M7.5-12.5H8.75v1.25H7.5ZM11.25-5H12.5v1.25H11.25ZM15-12.5h1.25v1.25H15Zm-3.75,0H12.5v1.25H11.25ZM7.5-10H8.75v1.25H7.5ZM3.75-10H5v1.25H3.75ZM15-10h1.25v1.25H15Zm-3.75,0H12.5v1.25H11.25ZM7.5-7.5H8.75v1.25H7.5Zm-3.75,0H5v1.25H3.75ZM15-7.5h1.25v1.25H15Zm-3.75,0H12.5v1.25H11.25ZM7.5-5H8.75v1.25H7.5ZM3.75-5H5v1.25H3.75ZM20-18.75v17.5H0v-17.5H3.75V-20H5v1.25H15V-20h1.25v1.25ZM1.25-17.5V-15h17.5v-2.5h-2.5v1.25H15V-17.5H5v1.25H3.75V-17.5Zm17.5,15V-13.75H1.25V-2.5Z" transform="translate(0 20)" fill="#020403"/>
</svg>
