<svg xmlns="http://www.w3.org/2000/svg" width="12.5" height="20" viewBox="0 0 12.5 20">
  <path id="Контур_8693" data-name="Контур 8693" d="M10-20a6.118,6.118,0,0,1,1.66.225,6.34,6.34,0,0,1,1.494.63,6.222,6.222,0,0,1,1.265.977A6.222,6.222,0,0,1,15.4-16.9a6.34,6.34,0,0,1,.63,1.494,6.118,6.118,0,0,1,.225,1.66,5.011,5.011,0,0,1-.161,1.284,6.331,6.331,0,0,1-.464,1.216L10,0,4.375-11.25a6.332,6.332,0,0,1-.464-1.216A5.011,5.011,0,0,1,3.75-13.75a6.118,6.118,0,0,1,.225-1.66A6.34,6.34,0,0,1,4.6-16.9a6.222,6.222,0,0,1,.977-1.265,6.222,6.222,0,0,1,1.265-.977,6.34,6.34,0,0,1,1.494-.63A6.118,6.118,0,0,1,10-20Zm4.648,8.262q0-.01,0-.01s0,0,0-.01a4.241,4.241,0,0,0,.371-.967,4.212,4.212,0,0,0,.127-1.025,4.991,4.991,0,0,0-.405-2,5.232,5.232,0,0,0-1.108-1.641A5.232,5.232,0,0,0,12-18.5a4.991,4.991,0,0,0-2-.405A4.991,4.991,0,0,0,8-18.5a5.232,5.232,0,0,0-1.641,1.108,5.232,5.232,0,0,0-1.108,1.641,4.991,4.991,0,0,0-.405,2,4.212,4.212,0,0,0,.127,1.025,4.241,4.241,0,0,0,.371.967q0,.01,0,.01s0,0,0,.01L10-2.441ZM10-17.422a3.578,3.578,0,0,1,1.431.288,3.705,3.705,0,0,1,1.167.786,3.705,3.705,0,0,1,.786,1.167,3.578,3.578,0,0,1,.288,1.431,3.578,3.578,0,0,1-.288,1.431,3.705,3.705,0,0,1-.786,1.167,3.705,3.705,0,0,1-1.167.786A3.578,3.578,0,0,1,10-10.078a3.578,3.578,0,0,1-1.431-.288A3.705,3.705,0,0,1,7.4-11.152a3.705,3.705,0,0,1-.786-1.167,3.578,3.578,0,0,1-.288-1.431,3.578,3.578,0,0,1,.288-1.431A3.705,3.705,0,0,1,7.4-16.348a3.705,3.705,0,0,1,1.167-.786A3.578,3.578,0,0,1,10-17.422Zm0,6.25a2.534,2.534,0,0,0,1.006-.2,2.582,2.582,0,0,0,.82-.552,2.582,2.582,0,0,0,.552-.82,2.534,2.534,0,0,0,.2-1.006,2.534,2.534,0,0,0-.2-1.006,2.582,2.582,0,0,0-.552-.82,2.582,2.582,0,0,0-.82-.552,2.534,2.534,0,0,0-1.006-.2,2.534,2.534,0,0,0-1.006.2,2.582,2.582,0,0,0-.82.552,2.582,2.582,0,0,0-.552.82,2.534,2.534,0,0,0-.2,1.006,2.534,2.534,0,0,0,.2,1.006,2.582,2.582,0,0,0,.552.82,2.582,2.582,0,0,0,.82.552A2.534,2.534,0,0,0,10-11.172Z" transform="translate(-3.75 20)" fill="#020403"/>
</svg>
