<svg xmlns="http://www.w3.org/2000/svg" width="20" height="20" viewBox="0 0 20 20">
  <path id="Контур_8695" data-name="Контур 8695" d="M10,0A9.834,9.834,0,0,1,7.339-.356,10.134,10.134,0,0,1,4.951-1.362,9.93,9.93,0,0,1,2.925-2.925,9.93,9.93,0,0,1,1.362-4.951,10.113,10.113,0,0,1,.356-7.344,9.85,9.85,0,0,1,0-10a9.85,9.85,0,0,1,.356-2.656,10.113,10.113,0,0,1,1.006-2.393,9.93,9.93,0,0,1,1.563-2.026,9.93,9.93,0,0,1,2.026-1.562,10.113,10.113,0,0,1,2.393-1.006A9.85,9.85,0,0,1,10-20a9.85,9.85,0,0,1,2.656.356,10.113,10.113,0,0,1,2.393,1.006,9.93,9.93,0,0,1,2.026,1.563,9.93,9.93,0,0,1,1.563,2.026,10.113,10.113,0,0,1,1.006,2.393A9.85,9.85,0,0,1,20-10a9.834,9.834,0,0,1-.356,2.661,10.134,10.134,0,0,1-1.006,2.388,9.93,9.93,0,0,1-1.562,2.026,9.93,9.93,0,0,1-2.026,1.563A10.113,10.113,0,0,1,12.656-.356,9.85,9.85,0,0,1,10,0Zm0-18.75a8.576,8.576,0,0,0-2.319.313,8.751,8.751,0,0,0-2.09.884,8.817,8.817,0,0,0-1.772,1.372,8.817,8.817,0,0,0-1.372,1.772,8.751,8.751,0,0,0-.884,2.09A8.576,8.576,0,0,0,1.25-10a8.576,8.576,0,0,0,.313,2.319,8.751,8.751,0,0,0,.884,2.09A8.817,8.817,0,0,0,3.818-3.818,8.817,8.817,0,0,0,5.591-2.446a8.751,8.751,0,0,0,2.09.884A8.576,8.576,0,0,0,10-1.25a8.576,8.576,0,0,0,2.319-.312,8.751,8.751,0,0,0,2.09-.884,8.817,8.817,0,0,0,1.772-1.372,8.817,8.817,0,0,0,1.372-1.772,8.751,8.751,0,0,0,.884-2.09A8.576,8.576,0,0,0,18.75-10a8.576,8.576,0,0,0-.312-2.319,8.751,8.751,0,0,0-.884-2.09,8.817,8.817,0,0,0-1.372-1.772,8.817,8.817,0,0,0-1.772-1.372,8.751,8.751,0,0,0-2.09-.884A8.576,8.576,0,0,0,10-18.75ZM10-10v-6.25H8.75v7.5h5V-10Z" transform="translate(0 20)" fill="#020403"/>
</svg>
