<svg xmlns="http://www.w3.org/2000/svg" width="17.991" height="18" viewBox="0 0 17.991 18">
  <path id="Контур_9117" data-name="Контур 9117" d="M14.124-7.339a1.95,1.95,0,0,1,.743.145,1.887,1.887,0,0,1,.628.417l1.934,1.934a1.887,1.887,0,0,1,.417.628,1.95,1.95,0,0,1,.145.743,1.95,1.95,0,0,1-.145.743,1.887,1.887,0,0,1-.417.628l-.123.123q-.475.475-.87.844a4.609,4.609,0,0,1-.826.62,3.659,3.659,0,0,1-.958.382A5.237,5.237,0,0,1,13.395,0a7.953,7.953,0,0,1-2.259-.343,12.532,12.532,0,0,1-2.307-.949,16.541,16.541,0,0,1-2.25-1.441A19.5,19.5,0,0,1,4.5-4.557,20.009,20.009,0,0,1,2.689-6.649,16.389,16.389,0,0,1,1.266-8.9a12.619,12.619,0,0,1-.932-2.29A7.879,7.879,0,0,1,0-13.4a5.3,5.3,0,0,1,.127-1.248A3.572,3.572,0,0,1,.505-15.6a4.588,4.588,0,0,1,.615-.822q.365-.391.839-.866l.141-.141a1.958,1.958,0,0,1,.624-.422A1.89,1.89,0,0,1,3.472-18a1.9,1.9,0,0,1,.743.149,1.945,1.945,0,0,1,.628.422L6.776-15.5a1.887,1.887,0,0,1,.417.628,1.95,1.95,0,0,1,.145.743,1.715,1.715,0,0,1-.132.69,2.493,2.493,0,0,1-.325.549,3.253,3.253,0,0,1-.426.448q-.233.2-.426.4a2.584,2.584,0,0,0-.325.391.754.754,0,0,0-.132.426.779.779,0,0,0,.237.571L10.652-5.81a.779.779,0,0,0,.571.237A.754.754,0,0,0,11.65-5.7a2.584,2.584,0,0,0,.391-.325q.193-.193.4-.426a3.253,3.253,0,0,1,.448-.426,2.493,2.493,0,0,1,.549-.325A1.715,1.715,0,0,1,14.124-7.339Zm-.729,6.214a4.015,4.015,0,0,0,1.059-.119,2.735,2.735,0,0,0,.769-.343,3.971,3.971,0,0,0,.668-.558q.325-.334.747-.756a.779.779,0,0,0,.237-.571.764.764,0,0,0-.127-.374,3.3,3.3,0,0,0-.33-.453q-.2-.237-.453-.488t-.492-.475l-.448-.413q-.207-.189-.321-.3a.789.789,0,0,0-.58-.237.734.734,0,0,0-.422.132,2.713,2.713,0,0,0-.387.325q-.193.193-.4.426a3.464,3.464,0,0,1-.453.426,2.493,2.493,0,0,1-.549.325,1.715,1.715,0,0,1-.69.132,1.95,1.95,0,0,1-.743-.145,1.887,1.887,0,0,1-.628-.417L5.01-9.853a1.887,1.887,0,0,1-.417-.628,1.95,1.95,0,0,1-.145-.743,1.715,1.715,0,0,1,.132-.69,2.493,2.493,0,0,1,.325-.549,3.464,3.464,0,0,1,.426-.453q.233-.207.426-.4a2.713,2.713,0,0,0,.325-.387.734.734,0,0,0,.132-.422.789.789,0,0,0-.237-.58q-.114-.114-.3-.321l-.413-.448q-.224-.242-.475-.492T4.3-16.418a3.3,3.3,0,0,0-.453-.33.764.764,0,0,0-.374-.127.779.779,0,0,0-.571.237q-.422.422-.751.747a4.479,4.479,0,0,0-.562.668,2.6,2.6,0,0,0-.352.769,3.975,3.975,0,0,0-.119,1.05,6.908,6.908,0,0,0,.321,2.03,11.42,11.42,0,0,0,.888,2.092A15.932,15.932,0,0,0,3.665-7.22,18.365,18.365,0,0,0,5.353-5.3,18.9,18.9,0,0,0,7.282-3.63,15.923,15.923,0,0,0,9.338-2.307a11.339,11.339,0,0,0,2.074.87A6.847,6.847,0,0,0,13.395-1.125Z" transform="translate(0 18)" fill="#020403"/>
</svg>
