<svg xmlns="http://www.w3.org/2000/svg" width="18.75" height="18.75" viewBox="0 0 18.75 18.75">
  <path id="Контур_8682" data-name="Контур 8682" d="M9.375-1.25a9.287,9.287,0,0,1-2.5-.332,9.415,9.415,0,0,1-2.241-.942,9.33,9.33,0,0,1-1.9-1.465,9.33,9.33,0,0,1-1.465-1.9A9.415,9.415,0,0,1,.332-8.13,9.287,9.287,0,0,1,0-10.625a9.287,9.287,0,0,1,.332-2.5,9.415,9.415,0,0,1,.942-2.241,9.33,9.33,0,0,1,1.465-1.9,9.33,9.33,0,0,1,1.9-1.465,9.415,9.415,0,0,1,2.241-.942A9.287,9.287,0,0,1,9.375-20a9.287,9.287,0,0,1,2.5.332,9.415,9.415,0,0,1,2.241.942,9.33,9.33,0,0,1,1.9,1.465,9.33,9.33,0,0,1,1.465,1.9,9.415,9.415,0,0,1,.942,2.241,9.287,9.287,0,0,1,.332,2.5,9.287,9.287,0,0,1-.332,2.5,9.415,9.415,0,0,1-.942,2.241,9.33,9.33,0,0,1-1.465,1.9,9.33,9.33,0,0,1-1.9,1.465,9.415,9.415,0,0,1-2.241.942A9.287,9.287,0,0,1,9.375-1.25Zm0-17.5a7.887,7.887,0,0,0-2.158.293,8.323,8.323,0,0,0-1.938.82,8.076,8.076,0,0,0-1.646,1.27,8.076,8.076,0,0,0-1.27,1.646,8.3,8.3,0,0,0-.82,1.943,7.9,7.9,0,0,0-.293,2.153,7.9,7.9,0,0,0,.293,2.153,8.3,8.3,0,0,0,.82,1.943,8.076,8.076,0,0,0,1.27,1.646,8.076,8.076,0,0,0,1.646,1.27,8.323,8.323,0,0,0,1.938.82A7.887,7.887,0,0,0,9.375-2.5a7.9,7.9,0,0,0,2.153-.293,8.3,8.3,0,0,0,1.943-.82,8.076,8.076,0,0,0,1.646-1.27,8.076,8.076,0,0,0,1.27-1.646,8.323,8.323,0,0,0,.82-1.938,7.887,7.887,0,0,0,.293-2.158,7.9,7.9,0,0,0-.293-2.153,8.3,8.3,0,0,0-.82-1.943,8.076,8.076,0,0,0-1.27-1.646,8.076,8.076,0,0,0-1.646-1.27,8.3,8.3,0,0,0-1.943-.82A7.9,7.9,0,0,0,9.375-18.75ZM8.75-12.5H10v6.25H8.75Zm0-2.5H10v1.25H8.75Z" transform="translate(0 20)" fill="#ea4300"/>
</svg>
