<svg xmlns="http://www.w3.org/2000/svg" width="24" height="24" viewBox="0 0 24 24">
  <path id="Контур_8680" data-name="Контур 8680" d="M15.2-23.555a11.5,11.5,0,0,1,3.563,1.646,12.211,12.211,0,0,1,2.783,2.648,12.075,12.075,0,0,1,1.811,3.387A11.73,11.73,0,0,1,24-12a11.82,11.82,0,0,1-.428,3.188,12.135,12.135,0,0,1-1.207,2.871A11.917,11.917,0,0,1,20.49-3.51a11.917,11.917,0,0,1-2.432,1.875A12.135,12.135,0,0,1,15.188-.428,11.82,11.82,0,0,1,12,0,11.82,11.82,0,0,1,8.813-.428,12.135,12.135,0,0,1,5.941-1.635,11.917,11.917,0,0,1,3.51-3.51,11.917,11.917,0,0,1,1.635-5.941,12.161,12.161,0,0,1,.428-8.807,11.8,11.8,0,0,1,0-12a11.754,11.754,0,0,1,.434-3.187A12.234,12.234,0,0,1,1.67-18.1a11.824,11.824,0,0,1,1.951-2.484A12.029,12.029,0,0,1,6.211-22.5H3V-24H9v6H7.5v-3.48a10.491,10.491,0,0,0-2.479,1.646,10.6,10.6,0,0,0-1.893,2.227,10.478,10.478,0,0,0-1.207,2.666A10.339,10.339,0,0,0,1.5-12a10.292,10.292,0,0,0,.375,2.783A10.5,10.5,0,0,0,2.936-6.709,10.58,10.58,0,0,0,4.582-4.582,10.58,10.58,0,0,0,6.709-2.936a10.526,10.526,0,0,0,2.5,1.061A10.272,10.272,0,0,0,12-1.5a10.292,10.292,0,0,0,2.783-.375,10.5,10.5,0,0,0,2.508-1.061,10.58,10.58,0,0,0,2.127-1.646,10.58,10.58,0,0,0,1.646-2.127,10.526,10.526,0,0,0,1.061-2.5A10.272,10.272,0,0,0,22.5-12a10.206,10.206,0,0,0-.568-3.387,10.618,10.618,0,0,0-1.588-2.965,10.706,10.706,0,0,0-2.432-2.314A10.166,10.166,0,0,0,14.8-22.113Z" transform="translate(0 24)" fill="#020403"/>
</svg>
