<svg xmlns="http://www.w3.org/2000/svg" xmlns:xlink="http://www.w3.org/1999/xlink" width="109.719" height="92.904" viewBox="0 0 109.719 92.904">
  <defs>
    <filter id="Контур_8674">
      <feOffset dy="3" input="SourceAlpha"/>
      <feGaussianBlur stdDeviation="3" result="blur"/>
      <feFlood flood-opacity="0.161" result="color"/>
      <feComposite operator="out" in="SourceGraphic" in2="blur"/>
      <feComposite operator="in" in="color"/>
      <feComposite operator="in" in2="SourceGraphic"/>
    </filter>
    <filter id="Контур_8675">
      <feOffset dy="3" input="SourceAlpha"/>
      <feGaussianBlur stdDeviation="3" result="blur-2"/>
      <feFlood flood-opacity="0.161" result="color-2"/>
      <feComposite operator="out" in="SourceGraphic" in2="blur-2"/>
      <feComposite operator="in" in="color-2"/>
      <feComposite operator="in" in2="SourceGraphic"/>
    </filter>
  </defs>
  <g id="theater" transform="translate(-0.001)">
    <g data-type="innerShadowGroup">
      <path id="Контур_8674-2" data-name="Контур 8674" d="M235.215,7.438V9.826a24.968,24.968,0,0,1,5.271.075,3.273,3.273,0,0,1,2.436,1.841l4.656,9.923a3.261,3.261,0,0,1,1.544.842,4.379,4.379,0,0,0,2,1.162,4.33,4.33,0,0,0,4.1-1.089,3.321,3.321,0,0,1,4.077-.522,3.279,3.279,0,0,1,.6,5.11,10.8,10.8,0,0,1-7.686,3.184q-.28,0-.558-.014l6.259,13.341q.4.844.753,1.7a20.574,20.574,0,0,1,20.664,4.966,3.338,3.338,0,0,1,.221,4.574,3.276,3.276,0,0,1-4.767.143,14.02,14.02,0,0,0-14.051-3.469,43.436,43.436,0,0,1-.18,21.8q1.328.439,2.7.782a6.736,6.736,0,0,0,3.238,0,36.929,36.929,0,0,0,28.043-35.848V7.438A3.671,3.671,0,0,0,292.153,4c-4.511-1.7-13.229-4-27.28-4S242.1,2.305,237.591,4A3.669,3.669,0,0,0,235.215,7.438Zm36.21,15.1a3.276,3.276,0,0,1,4.632,0,4.318,4.318,0,0,0,6.107,0,3.275,3.275,0,1,1,4.632,4.632,10.869,10.869,0,0,1-15.372,0A3.276,3.276,0,0,1,271.425,22.535Zm0,0" transform="translate(-184.809)" fill="#01bcf2"/>
      <g transform="matrix(1, 0, 0, 1, 0, 0)" filter="url(#Контур_8674)">
        <path id="Контур_8674-3" data-name="Контур 8674" d="M235.215,7.438V9.826a24.968,24.968,0,0,1,5.271.075,3.273,3.273,0,0,1,2.436,1.841l4.656,9.923a3.261,3.261,0,0,1,1.544.842,4.379,4.379,0,0,0,2,1.162,4.33,4.33,0,0,0,4.1-1.089,3.321,3.321,0,0,1,4.077-.522,3.279,3.279,0,0,1,.6,5.11,10.8,10.8,0,0,1-7.686,3.184q-.28,0-.558-.014l6.259,13.341q.4.844.753,1.7a20.574,20.574,0,0,1,20.664,4.966,3.338,3.338,0,0,1,.221,4.574,3.276,3.276,0,0,1-4.767.143,14.02,14.02,0,0,0-14.051-3.469,43.436,43.436,0,0,1-.18,21.8q1.328.439,2.7.782a6.736,6.736,0,0,0,3.238,0,36.929,36.929,0,0,0,28.043-35.848V7.438A3.671,3.671,0,0,0,292.153,4c-4.511-1.7-13.229-4-27.28-4S242.1,2.305,237.591,4A3.669,3.669,0,0,0,235.215,7.438Zm36.21,15.1a3.276,3.276,0,0,1,4.632,0,4.318,4.318,0,0,0,6.107,0,3.275,3.275,0,1,1,4.632,4.632,10.869,10.869,0,0,1-15.372,0A3.276,3.276,0,0,1,271.425,22.535Zm0,0" transform="translate(-184.81)" fill="#fff"/>
      </g>
    </g>
    <g data-type="innerShadowGroup">
      <path id="Контур_8675-2" data-name="Контур 8675" d="M67.167,106.5,53.978,78.39A3.439,3.439,0,0,0,50.6,76.424c-4.762.36-13.695,1.94-26.561,7.976C11.319,90.369,4.4,96.159,1.04,99.609a3.67,3.67,0,0,0-.691,4.122l13.118,27.961a36.931,36.931,0,0,0,40.617,20.541A6.7,6.7,0,0,0,57,150.865,36.929,36.929,0,0,0,67.167,106.5Zm-26.5-2.1a10.881,10.881,0,0,1,13.917-6.529,3.276,3.276,0,0,1-2.227,6.161,4.324,4.324,0,0,0-5.529,2.594,3.275,3.275,0,1,1-6.161-2.226Zm-12.668,11.06a4.319,4.319,0,0,0-5.529,2.594,3.276,3.276,0,1,1-6.162-2.226A10.87,10.87,0,0,1,30.221,109.3a3.275,3.275,0,1,1-2.226,6.161Zm11,21.411a20.451,20.451,0,0,1-6.965-1.225,3.275,3.275,0,1,1,2.226-6.161,14.023,14.023,0,0,0,17.932-8.413,3.276,3.276,0,1,1,6.161,2.227A20.594,20.594,0,0,1,38.993,136.875Zm0,0" transform="translate(0 -60.039)" fill="#01bcf2"/>
      <g transform="matrix(1, 0, 0, 1, 0, 0)" filter="url(#Контур_8675)">
        <path id="Контур_8675-3" data-name="Контур 8675" d="M67.167,106.5,53.978,78.39A3.439,3.439,0,0,0,50.6,76.424c-4.762.36-13.695,1.94-26.561,7.976C11.319,90.369,4.4,96.159,1.04,99.609a3.67,3.67,0,0,0-.691,4.122l13.118,27.961a36.931,36.931,0,0,0,40.617,20.541A6.7,6.7,0,0,0,57,150.865,36.929,36.929,0,0,0,67.167,106.5Zm-26.5-2.1a10.881,10.881,0,0,1,13.917-6.529,3.276,3.276,0,0,1-2.227,6.161,4.324,4.324,0,0,0-5.529,2.594,3.275,3.275,0,1,1-6.161-2.226Zm-12.668,11.06a4.319,4.319,0,0,0-5.529,2.594,3.276,3.276,0,1,1-6.162-2.226A10.87,10.87,0,0,1,30.221,109.3a3.275,3.275,0,1,1-2.226,6.161Zm11,21.411a20.451,20.451,0,0,1-6.965-1.225,3.275,3.275,0,1,1,2.226-6.161,14.023,14.023,0,0,0,17.932-8.413,3.276,3.276,0,1,1,6.161,2.227A20.594,20.594,0,0,1,38.993,136.875Zm0,0" transform="translate(0 -60.04)" fill="#fff"/>
      </g>
    </g>
  </g>
</svg>
