<svg xmlns="http://www.w3.org/2000/svg" width="36" height="36" viewBox="0 0 36 36">
  <path id="Контур_8679" data-name="Контур 8679" d="M36-1.23a1.328,1.328,0,0,1-.3.861A1,1,0,0,1,34.875,0a1.081,1.081,0,0,1-.791-.334l-13.8-13.781a12.637,12.637,0,0,1-3.7,2.127,12.128,12.128,0,0,1-4.21.738,12.225,12.225,0,0,1-3.287-.439,12.226,12.226,0,0,1-2.953-1.248,12.534,12.534,0,0,1-2.5-1.942,12.534,12.534,0,0,1-1.942-2.5A12.226,12.226,0,0,1,.439-20.338,12.225,12.225,0,0,1,0-23.625a12.225,12.225,0,0,1,.439-3.287,12.226,12.226,0,0,1,1.248-2.953,12.534,12.534,0,0,1,1.942-2.5,12.534,12.534,0,0,1,2.5-1.942,12.226,12.226,0,0,1,2.953-1.248A12.225,12.225,0,0,1,12.375-36a12.225,12.225,0,0,1,3.287.439,12.226,12.226,0,0,1,2.953,1.248,12.534,12.534,0,0,1,2.5,1.942,12.534,12.534,0,0,1,1.942,2.5,12.226,12.226,0,0,1,1.248,2.953,12.225,12.225,0,0,1,.439,3.287,12.128,12.128,0,0,1-.738,4.21,12.637,12.637,0,0,1-2.127,3.7q.264.264,1.011,1t1.793,1.758q1.046,1.02,2.285,2.241t2.5,2.479Q30.727-6.979,31.9-5.783T34-3.621q.914.967,1.459,1.608A2.447,2.447,0,0,1,36-1.23ZM12.375-13.5a9.8,9.8,0,0,0,3.938-.8,10.281,10.281,0,0,0,3.217-2.171A10.281,10.281,0,0,0,21.7-19.687a9.8,9.8,0,0,0,.8-3.937,9.8,9.8,0,0,0-.8-3.937,10.281,10.281,0,0,0-2.171-3.217,10.281,10.281,0,0,0-3.217-2.171,9.8,9.8,0,0,0-3.937-.8,9.8,9.8,0,0,0-3.937.8,10.281,10.281,0,0,0-3.217,2.171A10.281,10.281,0,0,0,3.05-27.562a9.8,9.8,0,0,0-.8,3.938,9.8,9.8,0,0,0,.8,3.938,10.281,10.281,0,0,0,2.171,3.217A10.281,10.281,0,0,0,8.438-14.3,9.8,9.8,0,0,0,12.375-13.5Z" transform="translate(0 36)" fill="#020403"/>
</svg>
