<svg xmlns="http://www.w3.org/2000/svg" width="26.25" height="30" viewBox="0 0 26.25 30">
  <path id="Контур_8678" data-name="Контур 8678" d="M19.482-12.378a12.549,12.549,0,0,1,3.6,1.926A12.722,12.722,0,0,1,25.8-7.588a13.057,13.057,0,0,1,1.721,3.56A13.5,13.5,0,0,1,28.125,0H26.25a11.488,11.488,0,0,0-.857-4.46,10.921,10.921,0,0,0-2.366-3.567,10.921,10.921,0,0,0-3.567-2.366A11.488,11.488,0,0,0,15-11.25a11.418,11.418,0,0,0-3.018.4,11.3,11.3,0,0,0-2.7,1.121A10.969,10.969,0,0,0,7.009-7.991,10.969,10.969,0,0,0,5.266-5.72a11.3,11.3,0,0,0-1.121,2.7A11.418,11.418,0,0,0,3.75,0H1.875A13.183,13.183,0,0,1,2.49-4.036,13.055,13.055,0,0,1,4.233-7.573a12.872,12.872,0,0,1,2.732-2.842,13.294,13.294,0,0,1,3.582-1.948A9.211,9.211,0,0,1,8.5-13.857a9.308,9.308,0,0,1-1.545-1.956,9.6,9.6,0,0,1-.981-2.3,9.229,9.229,0,0,1-.344-2.512,9.168,9.168,0,0,1,.732-3.655,9.431,9.431,0,0,1,2.007-2.981,9.431,9.431,0,0,1,2.981-2.007A9.168,9.168,0,0,1,15-30a9.168,9.168,0,0,1,3.655.732,9.431,9.431,0,0,1,2.981,2.007,9.431,9.431,0,0,1,2.007,2.981,9.168,9.168,0,0,1,.732,3.655,9.15,9.15,0,0,1-.344,2.5,9.5,9.5,0,0,1-.981,2.285,9.7,9.7,0,0,1-1.538,1.956A9.07,9.07,0,0,1,19.482-12.378ZM7.5-20.625a7.221,7.221,0,0,0,.593,2.915A7.651,7.651,0,0,0,9.7-15.33a7.651,7.651,0,0,0,2.38,1.611A7.221,7.221,0,0,0,15-13.125a7.221,7.221,0,0,0,2.915-.593A7.651,7.651,0,0,0,20.3-15.33a7.651,7.651,0,0,0,1.611-2.38,7.221,7.221,0,0,0,.593-2.915,7.221,7.221,0,0,0-.593-2.915A7.651,7.651,0,0,0,20.3-25.92a7.651,7.651,0,0,0-2.38-1.611A7.221,7.221,0,0,0,15-28.125a7.221,7.221,0,0,0-2.915.593A7.651,7.651,0,0,0,9.7-25.92a7.651,7.651,0,0,0-1.611,2.38A7.221,7.221,0,0,0,7.5-20.625Z" transform="translate(-1.875 30)"/>
</svg>
