<svg id="_1645964464592" xmlns="http://www.w3.org/2000/svg" width="111.721" height="12.001" viewBox="0 0 111.721 12.001">
  <path id="Контур_8664" data-name="Контур 8664" d="M7306.229,26.123h-1.448l0-9.4L7302.1,23.8a1.568,1.568,0,0,1-2.9,0l-2.712-6.633.006,2.537v4.032h0v1.25a1.032,1.032,0,0,1-1.134,1.135h-1.222V15.6h0v-.027l0-.026,0-.027,0-.026.005-.026.006-.026.007-.026.007-.026h0l.008-.026.008-.026.009-.025.01-.026.011-.025.011-.025.012-.025.013-.025.013-.024h0l.014-.024.014-.024h0l.015-.024.016-.023.016-.023h0l.017-.023h0l.017-.023h0l.017-.022h0l.018-.022.019-.021.019-.021.02-.021.019-.02h0l.02-.02.021-.019.021-.019h0l.021-.018.021-.018.022-.017.022-.017h0l.022-.016h0l.023-.016h0l.023-.015.024-.015.024-.014.024-.014.024-.013.025-.013.025-.012h0l.025-.011.025-.011h0l.025-.01h0l.025-.009.026-.009h0l.026-.008.026-.007.026-.007.026-.006h0l.026,0h0l.026,0,.027,0,.027,0,.027,0h2.745l2.768,7.4,2.68-6.768a1.052,1.052,0,0,1,1.013-.63h2.936V24.988C7307.361,25.765,7307.047,26.121,7306.229,26.123Z" transform="translate(-7195.643 -14.323)" fill="#ef7f1a"/>
  <path id="Контур_8665" data-name="Контур 8665" d="M6315.292,12a5.407,5.407,0,0,1-4.063-1.621,5.826,5.826,0,0,1-1.569-4.229,6.236,6.236,0,0,1,1.594-4.45,5.52,5.52,0,0,1,4.223-1.7,5.274,5.274,0,0,1,4.019,1.627,6,6,0,0,1,1.533,4.289,6.139,6.139,0,0,1-1.591,4.411A5.455,5.455,0,0,1,6315.292,12Zm.113-9.75a2.624,2.624,0,0,0-2.185,1.033,4.3,4.3,0,0,0-.809,2.729,4.241,4.241,0,0,0,.809,2.729,2.591,2.591,0,0,0,2.119,1,2.625,2.625,0,0,0,2.146-.975,4.187,4.187,0,0,0,.792-2.707,4.534,4.534,0,0,0-.768-2.809A2.511,2.511,0,0,0,6315.405,2.251Z" transform="translate(-6224.458 0)" fill="#ef7f1a"/>
  <path id="Контур_8666" data-name="Контур 8666" d="M5567.168,11.626a8.1,8.1,0,0,1-2.689.375,5.589,5.589,0,0,1-4.2-1.569,5.734,5.734,0,0,1-1.53-4.185,6.131,6.131,0,0,1,1.718-4.516A6.017,6.017,0,0,1,5564.932,0a9.089,9.089,0,0,1,1.66.13c.685.12,1.189.351,1.2,1.179v.679c-.069.7-.651.631-.97.533a5.618,5.618,0,0,0-1.685-.27,3.523,3.523,0,0,0-2.638,1.027,3.816,3.816,0,0,0-1,2.784,3.732,3.732,0,0,0,.948,2.682,3.344,3.344,0,0,0,2.549,1,7.645,7.645,0,0,0,1.859-.333c.391-.088.94.091.939.511v.611C5567.774,11.215,5567.567,11.492,5567.168,11.626Z" transform="translate(-5483.688 0)" fill="#ef7f1a"/>
  <path id="Контур_8667" data-name="Контур 8667" d="M4633.671,12a5.407,5.407,0,0,1-4.063-1.621,5.827,5.827,0,0,1-1.569-4.229,6.234,6.234,0,0,1,1.594-4.45,5.521,5.521,0,0,1,4.223-1.7,5.275,5.275,0,0,1,4.019,1.627,6,6,0,0,1,1.533,4.289,6.141,6.141,0,0,1-1.591,4.411A5.454,5.454,0,0,1,4633.671,12Zm.113-9.75a2.624,2.624,0,0,0-2.185,1.033,4.3,4.3,0,0,0-.81,2.729,4.239,4.239,0,0,0,.81,2.729,2.592,2.592,0,0,0,2.119,1,2.624,2.624,0,0,0,2.146-.975,4.184,4.184,0,0,0,.793-2.707,4.534,4.534,0,0,0-.768-2.809A2.511,2.511,0,0,0,4633.785,2.251Z" transform="translate(-4565.545 0)" fill="#ef7f1a"/>
  <path id="Контур_8668" data-name="Контур 8668" d="M4050.359,16.647h-4.094V19.5h2.625a1.223,1.223,0,0,1,1.137,1.137v.982h-3.762v4.508h-1.479a1.222,1.222,0,0,1-1.136-1.137V14.52h5.572a1.223,1.223,0,0,1,1.137,1.137Z" transform="translate(-3989.048 -14.324)" fill="#ef7f1a"/>
  <path id="Контур_8669" data-name="Контур 8669" d="M3083.125,25.972a1.8,1.8,0,0,1-1.679-.684l-4.338-6.612a10.905,10.905,0,0,1-.583-.961h-.03c.041.409.063,1.036.063,1.876v5.492c0,.4-.282.886-.667.886h-1.8V15.5a1.433,1.433,0,0,1,1.556-1.136,1.889,1.889,0,0,1,1.7.674l4.165,6.389c.21.32.4.635.583.947h.033a12.134,12.134,0,0,1-.066-1.594V15.493a1.222,1.222,0,0,1,1.141-1.127h1.327V24.832A1.3,1.3,0,0,1,3083.125,25.972Z" transform="translate(-3032.579 -14.169)" fill="#ef7f1a"/>
  <path id="Контур_8670" data-name="Контур 8670" d="M2686.709,26.124h-1.479V15.657a1.223,1.223,0,0,1,1.136-1.137h1.479V24.99A1.222,1.222,0,0,1,2686.709,26.124Z" transform="translate(-2648.97 -14.324)" fill="#ef7f1a"/>
  <path id="Контур_8671" data-name="Контур 8671" d="M1877.782,26.124H1870.7a1.165,1.165,0,0,1-.771-2l5.581-7.481h-5.519v-.988a1.224,1.224,0,0,1,1.143-1.139h7.759a3.486,3.486,0,0,1-.585,2.271L1873.074,24h5.833v.988a1.22,1.22,0,0,1-1.126,1.133Z" transform="translate(-1844.354 -14.324)" fill="#ef7f1a"/>
  <path id="Контур_8672" data-name="Контур 8672" d="M1052.306,21.1q0,5.224-4.869,5.226-4.727,0-4.726-5.1V15.657a1.062,1.062,0,0,1,1.137-1.137h1.483v6.731q0,2.817,2.2,2.817,2.159,0,2.16-2.721V15.657a1.231,1.231,0,0,1,1.135-1.137h1.478Z" transform="translate(-1028.63 -14.324)" fill="#ef7f1a"/>
  <path id="Контур_8673" data-name="Контур 8673" d="M11.519,15.64H1.513A1.517,1.517,0,0,0,0,17.153v.336a5.024,5.024,0,0,1,.907.239,15.772,15.772,0,0,1,3.714,2.1,12.241,12.241,0,0,1,3-1.738c.821-.291,1.459-.295,1.815.048.4.388.388,1.163.027,2.178a15.782,15.782,0,0,1-2.1,3.714,12.24,12.24,0,0,1,1.737,3c.015.042.029.084.043.125h.857a1.517,1.517,0,0,0,1.513-1.513ZM0,21.993v3.653a1.516,1.516,0,0,0,.778,1.321,3.563,3.563,0,0,0,1.266-.251A14.718,14.718,0,0,0,5.615,24.63a.025.025,0,0,1,.032.037h0q-.57.543-1.131,1.026c-.38.327-.755.632-1.121.912h0l-.214.161h0q-.276.206-.544.392H7.307c.346-.4.326-1.1,0-2.008A14.726,14.726,0,0,0,5.221,21.58a.024.024,0,0,1,.037-.032h0c.362.38.7.758,1.026,1.131s.614.734.888,1.09a8.675,8.675,0,0,0,.889-2.407,1.616,1.616,0,0,0-.26-1.426c-.387-.4-1.111-.39-2.06-.049a14.725,14.725,0,0,0-3.571,2.086.024.024,0,0,1-.031-.037h0q.569-.543,1.131-1.025c.369-.318.734-.615,1.091-.889a8.676,8.676,0,0,0-2.407-.889,1.615,1.615,0,0,0-1.426.26c-.4.387-.39,1.111-.049,2.059a14.715,14.715,0,0,0,2.086,3.571.025.025,0,0,1-.037.032h0q-.543-.569-1.025-1.131c-.327-.38-.632-.755-.912-1.122h0L.429,22.59h0q-.226-.3-.429-.6Z" transform="translate(0 -15.429)" fill="#095e9e" fill-rule="evenodd"/>
</svg>
